{"title":"UEFA Europa League ITV Highlights 2016-02-25 HDTV 1080p 2ch x265","uid":13694129,"size":425397818,"categoryP":"video","categoryS":"hd___tv_shows","magnet":"?xt=urn:btih:d8a3b1fc481ed482400a2bc54a6f8a26f9ccb605&amp;dn=UEFA+Europa+League+ITV+Highlights+2016-02-25+HDTV+1080p+2ch+x265&amp;tr=udp%3A%2F%2Ftracker.leechers-paradise.org%3A6969&amp;tr=udp%3A%2F%2Fzer0day.ch%3A1337&amp;tr=udp%3A%2F%2Fopen.demonii.com%3A1337&amp;tr=udp%3A%2F%2Ftracker.coppersurfer.tk%3A6969&amp;tr=udp%3A%2F%2Fexodus.desync.com%3A6969","seeders":0,"leechers":1,"uploader":"soulessness","files":1,"time":1456653995,"description":"UEFA.Europa.League.Highlights.2016-02-25.HDTV.1080p.2ch.x265.10bit.[S-Less]\r\n\r\nMark Pougatch introduces highlights and reaction to tonight's UEFA Europa League last 32 second leg ties, including Liverpool v Augsburg, Tottenham v Fiorentina and Manchester United v Midtjylland, plus all the goals from the rest of the games.\r\n\r\n\r\nMediaInfo:\r\n\r\n Video\r\n ID : 1\r\n Format : HEVC\r\n Format/Info : High Efficiency Video Coding\r\n Format profile : Main   @Main\r\n Codec ID : V_MPEGH/ISO/HEVC\r\n Duration : 54mn 55s\r\n Bit rate : 934 Kbps\r\n Width : 1 920 pixels\r\n Height : 1 080 pixels\r\n Display aspect ratio : 16:9\r\n Frame rate mode : Constant\r\n Frame rate : 25.000 fps\r\n Color space : YUV\r\n Chroma subsampling : 4:2:0\r\n Bit depth : 10 bits\r\n Bits/(Pixel*Frame) : 0.018\r\n Stream size : 367 MiB (90%)\r\n Writing library : x265 1.8+2-55a4a9b920ff:[Windows][GCC 5.2.0][64 bit] 10bit\r\n Default : Yes\r\n Forced : No\r\n\r\n Audio\r\n ID : 2\r\n Format : AAC\r\n Format/Info : Advanced Audio Codec\r\n Format profile : LC\r\n Codec ID : A_AAC\r\n Duration : 54mn 55s\r\n Bit rate : 96.0 Kbps\r\n Channel(s) : 2 channels\r\n Channel positions : Front: L R\r\n Sampling rate : 48.0 KHz\r\n Frame rate : 46.875 fps (1024 spf)\r\n Compression mode : Lossy\r\n Delay relative to video : 9ms\r\n Stream size : 37.7 MiB (9%)\r\n Language : English\r\n Default : Yes\r\n Forced : No","torrent":{"xt":"urn:btih:d8a3b1fc481ed482400a2bc54a6f8a26f9ccb605","amp;dn":"UEFA+Europa+League+ITV+Highlights+2016-02-25+HDTV+1080p+2ch+x265","amp;tr":["udp%3A%2F%2Ftracker.leechers-paradise.org%3A6969","udp%3A%2F%2Fzer0day.ch%3A1337","udp%3A%2F%2Fopen.demonii.com%3A1337","udp%3A%2F%2Ftracker.coppersurfer.tk%3A6969","udp%3A%2F%2Fexodus.desync.com%3A6969"],"infoHash":"d8a3b1fc481ed482400a2bc54a6f8a26f9ccb605","infoHashBuffer":{"type":"Buffer","data":[216,163,177,252,72,30,212,130,64,10,43,197,74,111,138,38,249,204,182,5]},"announce":[],"urlList":[]}}